<?xml version="1.0" encoding="UTF-8" standalone="no"?>
<!DOCTYPE svg PUBLIC "-//W3C//DTD SVG 1.1//EN"
 "http://www.w3.org/Graphics/SVG/1.1/DTD/svg11.dtd">
<!-- Generated by graphviz version 2.47.1 (0)
 -->
<!-- Pages: 1 -->
<svg width="365pt" height="781pt"
 viewBox="0.00 0.00 365.00 781.00" xmlns="http://www.w3.org/2000/svg" xmlns:xlink="http://www.w3.org/1999/xlink">
<g id="graph0" class="graph" transform="scale(1 1) rotate(0) translate(4 777)">
<polygon fill="white" stroke="transparent" points="-4,4 -4,-777 361,-777 361,4 -4,4"/>
<!-- 0 -->
<g id="node1" class="node">
<title>0</title>
<polygon fill="none" stroke="blue" points="254,-773 251,-777 230,-777 227,-773 103,-773 103,-615 254,-615 254,-773"/>
<text text-anchor="middle" x="178.5" y="-757.8" font-family="Times,serif" font-size="14.00">TableDescription(</text>
<text text-anchor="middle" x="178.5" y="-742.8" font-family="Times,serif" font-size="14.00"> &#160;&#160;&#160;table_name=&quot;d&quot;,</text>
<text text-anchor="middle" x="178.5" y="-727.8" font-family="Times,serif" font-size="14.00"> &#160;&#160;&#160;column_names=[</text>
<text text-anchor="middle" x="178.5" y="-712.8" font-family="Times,serif" font-size="14.00"> &#160;&#160;&#160;&#160;&#160;&#160;&#160;&quot;subjectID&quot;,</text>
<text text-anchor="middle" x="178.5" y="-697.8" font-family="Times,serif" font-size="14.00"> &#160;&#160;&#160;&#160;&#160;&#160;&#160;&quot;surveyCategory&quot;,</text>
<text text-anchor="middle" x="178.5" y="-682.8" font-family="Times,serif" font-size="14.00"> &#160;&#160;&#160;&#160;&#160;&#160;&#160;&quot;assessmentTotal&quot;,</text>
<text text-anchor="middle" x="178.5" y="-667.8" font-family="Times,serif" font-size="14.00"> &#160;&#160;&#160;&#160;&#160;&#160;&#160;&quot;irrelevantCol1&quot;,</text>
<text text-anchor="middle" x="178.5" y="-652.8" font-family="Times,serif" font-size="14.00"> &#160;&#160;&#160;&#160;&#160;&#160;&#160;&quot;irrelevantCol2&quot;,</text>
<text text-anchor="middle" x="178.5" y="-637.8" font-family="Times,serif" font-size="14.00"> &#160;&#160;&#160;],</text>
<text text-anchor="middle" x="178.5" y="-622.8" font-family="Times,serif" font-size="14.00">)</text>
</g>
<!-- 1 -->
<g id="node2" class="node">
<title>1</title>
<polygon fill="none" stroke="darkgreen" points="351,-579 0,-579 0,-543 357,-543 357,-573 351,-579"/>
<polyline fill="none" stroke="darkgreen" points="351,-579 351,-573 "/>
<polyline fill="none" stroke="darkgreen" points="357,-573 351,-573 "/>
<text text-anchor="middle" x="178.5" y="-557.3" font-family="Times,serif" font-size="14.00">extend({&quot;probability&quot;: &quot;((assessmentTotal * 0.237)).exp()&quot;})</text>
</g>
<!-- 0&#45;&gt;1 -->
<g id="edge1" class="edge">
<title>0&#45;&gt;1</title>
<path fill="none" stroke="black" d="M178.5,-614.91C178.5,-605.82 178.5,-597.07 178.5,-589.39"/>
<polygon fill="black" stroke="black" points="182,-589.32 178.5,-579.32 175,-589.32 182,-589.32"/>
</g>
<!-- 2 -->
<g id="node3" class="node">
<title>2</title>
<polygon fill="none" stroke="darkgreen" points="272.5,-507 78.5,-507 78.5,-439 278.5,-439 278.5,-501 272.5,-507"/>
<polyline fill="none" stroke="darkgreen" points="272.5,-507 272.5,-501 "/>
<polyline fill="none" stroke="darkgreen" points="278.5,-501 272.5,-501 "/>
<text text-anchor="middle" x="178.5" y="-491.8" font-family="Times,serif" font-size="14.00">extend(</text>
<text text-anchor="middle" x="178.5" y="-476.8" font-family="Times,serif" font-size="14.00"> &#160;&#160;&#160;{&quot;total&quot;: &quot;probability.sum()&quot;},</text>
<text text-anchor="middle" x="178.5" y="-461.8" font-family="Times,serif" font-size="14.00"> &#160;&#160;&#160;partition_by=[&quot;subjectID&quot;],</text>
<text text-anchor="middle" x="178.5" y="-446.8" font-family="Times,serif" font-size="14.00">)</text>
</g>
<!-- 1&#45;&gt;2 -->
<g id="edge2" class="edge">
<title>1&#45;&gt;2</title>
<path fill="none" stroke="black" d="M178.5,-542.6C178.5,-535.18 178.5,-526.16 178.5,-517.14"/>
<polygon fill="black" stroke="black" points="182,-517.03 178.5,-507.03 175,-517.03 182,-517.03"/>
</g>
<!-- 3 -->
<g id="node4" class="node">
<title>3</title>
<polygon fill="none" stroke="darkgreen" points="305,-403 46,-403 46,-367 311,-367 311,-397 305,-403"/>
<polyline fill="none" stroke="darkgreen" points="305,-403 305,-397 "/>
<polyline fill="none" stroke="darkgreen" points="311,-397 305,-397 "/>
<text text-anchor="middle" x="178.5" y="-381.3" font-family="Times,serif" font-size="14.00">extend({&quot;probability&quot;: &quot;probability / total&quot;})</text>
</g>
<!-- 2&#45;&gt;3 -->
<g id="edge3" class="edge">
<title>2&#45;&gt;3</title>
<path fill="none" stroke="black" d="M178.5,-439C178.5,-430.56 178.5,-421.59 178.5,-413.47"/>
<polygon fill="black" stroke="black" points="182,-413.4 178.5,-403.4 175,-413.4 182,-413.4"/>
</g>
<!-- 4 -->
<g id="node5" class="node">
<title>4</title>
<polygon fill="none" stroke="darkgreen" points="285.5,-331 65.5,-331 65.5,-233 291.5,-233 291.5,-325 285.5,-331"/>
<polyline fill="none" stroke="darkgreen" points="285.5,-331 285.5,-325 "/>
<polyline fill="none" stroke="darkgreen" points="291.5,-325 285.5,-325 "/>
<text text-anchor="middle" x="178.5" y="-315.8" font-family="Times,serif" font-size="14.00">extend(</text>
<text text-anchor="middle" x="178.5" y="-300.8" font-family="Times,serif" font-size="14.00"> &#160;&#160;&#160;{&quot;row_number&quot;: &quot;(1).cumsum()&quot;},</text>
<text text-anchor="middle" x="178.5" y="-285.8" font-family="Times,serif" font-size="14.00"> &#160;&#160;&#160;partition_by=[&quot;subjectID&quot;],</text>
<text text-anchor="middle" x="178.5" y="-270.8" font-family="Times,serif" font-size="14.00"> &#160;&#160;&#160;order_by=[&quot;probability&quot;],</text>
<text text-anchor="middle" x="178.5" y="-255.8" font-family="Times,serif" font-size="14.00"> &#160;&#160;&#160;reverse=[&quot;probability&quot;],</text>
<text text-anchor="middle" x="178.5" y="-240.8" font-family="Times,serif" font-size="14.00">)</text>
</g>
<!-- 3&#45;&gt;4 -->
<g id="edge4" class="edge">
<title>3&#45;&gt;4</title>
<path fill="none" stroke="black" d="M178.5,-366.87C178.5,-359.59 178.5,-350.65 178.5,-341.34"/>
<polygon fill="black" stroke="black" points="182,-341.15 178.5,-331.15 175,-341.15 182,-341.15"/>
</g>
<!-- 5 -->
<g id="node6" class="node">
<title>5</title>
<polygon fill="none" stroke="darkgreen" points="275,-197 76,-197 76,-161 281,-161 281,-191 275,-197"/>
<polyline fill="none" stroke="darkgreen" points="275,-197 275,-191 "/>
<polyline fill="none" stroke="darkgreen" points="281,-191 275,-191 "/>
<text text-anchor="middle" x="178.5" y="-175.3" font-family="Times,serif" font-size="14.00">select_rows(&quot;row_number == 1&quot;)</text>
</g>
<!-- 4&#45;&gt;5 -->
<g id="edge5" class="edge">
<title>4&#45;&gt;5</title>
<path fill="none" stroke="black" d="M178.5,-232.87C178.5,-224.06 178.5,-215.17 178.5,-207.24"/>
<polygon fill="black" stroke="black" points="182,-207.15 178.5,-197.15 175,-207.15 182,-207.15"/>
</g>
<!-- 6 -->
<g id="node7" class="node">
<title>6</title>
<polygon fill="none" stroke="darkgreen" points="319,-125 32,-125 32,-72 325,-72 325,-119 319,-125"/>
<polyline fill="none" stroke="darkgreen" points="319,-125 319,-119 "/>
<polyline fill="none" stroke="darkgreen" points="325,-119 319,-119 "/>
<text text-anchor="middle" x="178.5" y="-109.8" font-family="Times,serif" font-size="14.00">select_columns(</text>
<text text-anchor="middle" x="178.5" y="-94.8" font-family="Times,serif" font-size="14.00"> &#160;&#160;&#160;[&quot;subjectID&quot;, &quot;surveyCategory&quot;, &quot;probability&quot;]</text>
<text text-anchor="middle" x="178.5" y="-79.8" font-family="Times,serif" font-size="14.00">)</text>
</g>
<!-- 5&#45;&gt;6 -->
<g id="edge6" class="edge">
<title>5&#45;&gt;6</title>
<path fill="none" stroke="black" d="M178.5,-160.97C178.5,-153.45 178.5,-144.31 178.5,-135.4"/>
<polygon fill="black" stroke="black" points="182,-135.16 178.5,-125.16 175,-135.16 182,-135.16"/>
</g>
<!-- 7 -->
<g id="node8" class="node">
<title>7</title>
<polygon fill="none" stroke="darkgreen" points="326,-36 25,-36 25,0 332,0 332,-30 326,-36"/>
<polyline fill="none" stroke="darkgreen" points="326,-36 326,-30 "/>
<polyline fill="none" stroke="darkgreen" points="332,-30 326,-30 "/>
<text text-anchor="middle" x="178.5" y="-14.3" font-family="Times,serif" font-size="14.00">rename_columns({&quot;diagnosis&quot;: &quot;surveyCategory&quot;})</text>
</g>
<!-- 6&#45;&gt;7 -->
<g id="edge7" class="edge">
<title>6&#45;&gt;7</title>
<path fill="none" stroke="black" d="M178.5,-71.8C178.5,-63.71 178.5,-54.76 178.5,-46.55"/>
<polygon fill="black" stroke="black" points="182,-46.33 178.5,-36.33 175,-46.33 182,-46.33"/>
</g>
</g>
</svg>
