<?xml version="1.0" encoding="UTF-8" standalone="no"?>
<!DOCTYPE svg PUBLIC "-//W3C//DTD SVG 1.1//EN"
 "http://www.w3.org/Graphics/SVG/1.1/DTD/svg11.dtd">
<!-- Generated by graphviz version 2.40.1 (20161225.0304)
 -->
<!-- Title: %3 Pages: 1 -->
<svg width="494pt" height="308pt"
 viewBox="0.00 0.00 494.00 308.00" xmlns="http://www.w3.org/2000/svg" xmlns:xlink="http://www.w3.org/1999/xlink">
<g id="graph0" class="graph" transform="scale(1 1) rotate(0) translate(4 304)">
<title>%3</title>
<polygon fill="#ffffff" stroke="transparent" points="-4,4 -4,-304 490,-304 490,4 -4,4"/>
<!-- 0 -->
<g id="node1" class="node">
<title>0</title>
<polygon fill="none" stroke="#0000ff" points="486,-300 483,-304 462,-304 459,-300 130,-300 130,-247 486,-247 486,-300"/>
<text text-anchor="middle" x="308" y="-284.8" font-family="Times,serif" font-size="14.00" fill="#000000">TableDescription(</text>
<text text-anchor="middle" x="308" y="-269.8" font-family="Times,serif" font-size="14.00" fill="#000000"> &#160;&#160;&#160;table_name=&quot;data_frame&quot;, column_names=[&quot;g&quot;, &quot;x&quot;, &quot;v&quot;]</text>
<text text-anchor="middle" x="308" y="-254.8" font-family="Times,serif" font-size="14.00" fill="#000000">)</text>
</g>
<!-- 1 -->
<g id="node2" class="node">
<title>1</title>
<polygon fill="none" stroke="#006400" points="303,-210 135,-210 135,-174 309,-174 309,-204 303,-210"/>
<polyline fill="none" stroke="#006400" points="303,-210 303,-204 "/>
<polyline fill="none" stroke="#006400" points="309,-204 303,-204 "/>
<text text-anchor="middle" x="222" y="-188.3" font-family="Times,serif" font-size="14.00" fill="#000000">project({}, group_by=[&quot;g&quot;])</text>
</g>
<!-- 0&#45;&gt;1 -->
<g id="edge1" class="edge">
<title>0&#45;&gt;1</title>
<path fill="none" stroke="#000000" d="M279.8404,-246.8139C269.769,-237.2695 258.4596,-226.5519 248.5304,-217.1422"/>
<polygon fill="#000000" stroke="#000000" points="250.9159,-214.5808 241.2499,-210.2426 246.1008,-219.6617 250.9159,-214.5808"/>
</g>
<!-- 3 -->
<g id="node4" class="node">
<title>3</title>
<polygon fill="none" stroke="#006400" points="405,-36 109,-36 109,0 411,0 411,-30 405,-36"/>
<polyline fill="none" stroke="#006400" points="405,-36 405,-30 "/>
<polyline fill="none" stroke="#006400" points="411,-30 405,-30 "/>
<text text-anchor="middle" x="260" y="-14.3" font-family="Times,serif" font-size="14.00" fill="#000000">_0.natural_join(b=_1, by=[&quot;g&quot;], jointype=&quot;LEFT&quot;)</text>
</g>
<!-- 0&#45;&gt;3 -->
<g id="edge3" class="edge">
<title>0&#45;&gt;3</title>
<path fill="none" stroke="#000000" d="M321.0608,-246.9414C337.4748,-209.6177 360.7868,-140.2554 337,-87 328.9704,-69.0228 313.6856,-53.7835 298.8371,-42.2364"/>
<polygon fill="#000000" stroke="#000000" points="300.8034,-39.3375 290.6816,-36.2072 296.6421,-44.9663 300.8034,-39.3375"/>
<text text-anchor="middle" x="354.5" y="-144.8" font-family="Times,serif" font-size="14.00" fill="#000000">_0</text>
</g>
<!-- 2 -->
<g id="node3" class="node">
<title>2</title>
<polygon fill="none" stroke="#006400" points="322,-123 0,-123 0,-87 328,-87 328,-117 322,-123"/>
<polyline fill="none" stroke="#006400" points="322,-123 322,-117 "/>
<polyline fill="none" stroke="#006400" points="328,-117 322,-117 "/>
<text text-anchor="middle" x="164" y="-101.3" font-family="Times,serif" font-size="14.00" fill="#000000">extend({&quot;ngroup&quot;: &quot;_row_number()&quot;}, order_by=[&quot;g&quot;])</text>
</g>
<!-- 1&#45;&gt;2 -->
<g id="edge2" class="edge">
<title>1&#45;&gt;2</title>
<path fill="none" stroke="#000000" d="M209.9824,-173.9735C201.8168,-161.7252 190.8777,-145.3165 181.7177,-131.5766"/>
<polygon fill="#000000" stroke="#000000" points="184.4615,-129.3824 176.0022,-123.0034 178.6371,-133.2653 184.4615,-129.3824"/>
</g>
<!-- 2&#45;&gt;3 -->
<g id="edge4" class="edge">
<title>2&#45;&gt;3</title>
<path fill="none" stroke="#000000" d="M183.8913,-86.9735C197.9216,-74.2586 216.899,-57.0603 232.3936,-43.0183"/>
<polygon fill="#000000" stroke="#000000" points="235.0747,-45.3121 240.1342,-36.0034 230.374,-40.1251 235.0747,-45.3121"/>
<text text-anchor="middle" x="225.5" y="-57.8" font-family="Times,serif" font-size="14.00" fill="#000000">_1</text>
</g>
</g>
</svg>
