<?xml version="1.0" encoding="UTF-8" standalone="no"?>
<!DOCTYPE svg PUBLIC "-//W3C//DTD SVG 1.1//EN"
 "http://www.w3.org/Graphics/SVG/1.1/DTD/svg11.dtd">
<!-- Generated by graphviz version 2.40.1 (20161225.0304)
 -->
<!-- Title: %3 Pages: 1 -->
<svg width="364pt" height="449pt"
 viewBox="0.00 0.00 364.00 449.00" xmlns="http://www.w3.org/2000/svg" xmlns:xlink="http://www.w3.org/1999/xlink">
<g id="graph0" class="graph" transform="scale(1 1) rotate(0) translate(4 445)">
<title>%3</title>
<polygon fill="#ffffff" stroke="transparent" points="-4,4 -4,-445 360,-445 360,4 -4,4"/>
<!-- 0 -->
<g id="node1" class="node">
<title>0</title>
<polygon fill="none" stroke="#0000ff" points="356,-441 353,-445 332,-445 329,-441 0,-441 0,-388 356,-388 356,-441"/>
<text text-anchor="middle" x="178" y="-425.8" font-family="Times,serif" font-size="14.00" fill="#000000">TableDescription(</text>
<text text-anchor="middle" x="178" y="-410.8" font-family="Times,serif" font-size="14.00" fill="#000000"> &#160;&#160;&#160;table_name=&quot;data_frame&quot;, column_names=[&quot;g&quot;, &quot;x&quot;, &quot;v&quot;]</text>
<text text-anchor="middle" x="178" y="-395.8" font-family="Times,serif" font-size="14.00" fill="#000000">)</text>
</g>
<!-- 1 -->
<g id="node2" class="node">
<title>1</title>
<polygon fill="none" stroke="#006400" points="291,-352 59,-352 59,-209 297,-209 297,-346 291,-352"/>
<polyline fill="none" stroke="#006400" points="291,-352 291,-346 "/>
<polyline fill="none" stroke="#006400" points="297,-346 291,-346 "/>
<text text-anchor="middle" x="178" y="-336.8" font-family="Times,serif" font-size="14.00" fill="#000000">extend(</text>
<text text-anchor="middle" x="178" y="-321.8" font-family="Times,serif" font-size="14.00" fill="#000000"> &#160;&#160;&#160;{</text>
<text text-anchor="middle" x="178" y="-306.8" font-family="Times,serif" font-size="14.00" fill="#000000"> &#160;&#160;&#160;&#160;&#160;&#160;&#160;&quot;row_number&quot;: &quot;_row_number()&quot;,</text>
<text text-anchor="middle" x="178" y="-291.8" font-family="Times,serif" font-size="14.00" fill="#000000"> &#160;&#160;&#160;&#160;&#160;&#160;&#160;&quot;shift_v&quot;: &quot;v.shift()&quot;,</text>
<text text-anchor="middle" x="178" y="-276.8" font-family="Times,serif" font-size="14.00" fill="#000000"> &#160;&#160;&#160;&#160;&#160;&#160;&#160;&quot;cumsum_v&quot;: &quot;v.cumsum()&quot;,</text>
<text text-anchor="middle" x="178" y="-261.8" font-family="Times,serif" font-size="14.00" fill="#000000"> &#160;&#160;&#160;},</text>
<text text-anchor="middle" x="178" y="-246.8" font-family="Times,serif" font-size="14.00" fill="#000000"> &#160;&#160;&#160;partition_by=[&quot;g&quot;],</text>
<text text-anchor="middle" x="178" y="-231.8" font-family="Times,serif" font-size="14.00" fill="#000000"> &#160;&#160;&#160;order_by=[&quot;x&quot;],</text>
<text text-anchor="middle" x="178" y="-216.8" font-family="Times,serif" font-size="14.00" fill="#000000">)</text>
</g>
<!-- 0&#45;&gt;1 -->
<g id="edge1" class="edge">
<title>0&#45;&gt;1</title>
<path fill="none" stroke="#000000" d="M178,-387.7052C178,-380.0771 178,-371.3457 178,-362.2316"/>
<polygon fill="#000000" stroke="#000000" points="181.5001,-362.2258 178,-352.2258 174.5001,-362.2259 181.5001,-362.2258"/>
</g>
<!-- 2 -->
<g id="node3" class="node">
<title>2</title>
<polygon fill="none" stroke="#006400" points="259,-173 91,-173 91,0 265,0 265,-167 259,-173"/>
<polyline fill="none" stroke="#006400" points="259,-173 259,-167 "/>
<polyline fill="none" stroke="#006400" points="265,-167 259,-167 "/>
<text text-anchor="middle" x="178" y="-157.8" font-family="Times,serif" font-size="14.00" fill="#000000">extend(</text>
<text text-anchor="middle" x="178" y="-142.8" font-family="Times,serif" font-size="14.00" fill="#000000"> &#160;&#160;&#160;{</text>
<text text-anchor="middle" x="178" y="-127.8" font-family="Times,serif" font-size="14.00" fill="#000000"> &#160;&#160;&#160;&#160;&#160;&#160;&#160;&quot;ngroup&quot;: &quot;_ngroup()&quot;,</text>
<text text-anchor="middle" x="178" y="-112.8" font-family="Times,serif" font-size="14.00" fill="#000000"> &#160;&#160;&#160;&#160;&#160;&#160;&#160;&quot;size&quot;: &quot;_size()&quot;,</text>
<text text-anchor="middle" x="178" y="-97.8" font-family="Times,serif" font-size="14.00" fill="#000000"> &#160;&#160;&#160;&#160;&#160;&#160;&#160;&quot;max_v&quot;: &quot;v.max()&quot;,</text>
<text text-anchor="middle" x="178" y="-82.8" font-family="Times,serif" font-size="14.00" fill="#000000"> &#160;&#160;&#160;&#160;&#160;&#160;&#160;&quot;min_v&quot;: &quot;v.min()&quot;,</text>
<text text-anchor="middle" x="178" y="-67.8" font-family="Times,serif" font-size="14.00" fill="#000000"> &#160;&#160;&#160;&#160;&#160;&#160;&#160;&quot;sum_v&quot;: &quot;v.sum()&quot;,</text>
<text text-anchor="middle" x="178" y="-52.8" font-family="Times,serif" font-size="14.00" fill="#000000"> &#160;&#160;&#160;&#160;&#160;&#160;&#160;&quot;mean_v&quot;: &quot;v.mean()&quot;,</text>
<text text-anchor="middle" x="178" y="-37.8" font-family="Times,serif" font-size="14.00" fill="#000000"> &#160;&#160;&#160;},</text>
<text text-anchor="middle" x="178" y="-22.8" font-family="Times,serif" font-size="14.00" fill="#000000"> &#160;&#160;&#160;partition_by=[&quot;g&quot;],</text>
<text text-anchor="middle" x="178" y="-7.8" font-family="Times,serif" font-size="14.00" fill="#000000">)</text>
</g>
<!-- 1&#45;&gt;2 -->
<g id="edge2" class="edge">
<title>1&#45;&gt;2</title>
<path fill="none" stroke="#000000" d="M178,-208.8127C178,-200.4342 178,-191.7847 178,-183.1391"/>
<polygon fill="#000000" stroke="#000000" points="181.5001,-183.008 178,-173.0081 174.5001,-183.0081 181.5001,-183.008"/>
</g>
</g>
</svg>
