<?xml version="1.0" encoding="UTF-8" standalone="no"?>
<!DOCTYPE svg PUBLIC "-//W3C//DTD SVG 1.1//EN"
 "http://www.w3.org/Graphics/SVG/1.1/DTD/svg11.dtd">
<!-- Generated by graphviz version 2.40.1 (20161225.0304)
 -->
<!-- Title: %3 Pages: 1 -->
<svg width="366pt" height="419pt"
 viewBox="0.00 0.00 366.00 419.00" xmlns="http://www.w3.org/2000/svg" xmlns:xlink="http://www.w3.org/1999/xlink">
<g id="graph0" class="graph" transform="scale(1 1) rotate(0) translate(4 415)">
<title>%3</title>
<polygon fill="#ffffff" stroke="transparent" points="-4,4 -4,-415 362,-415 362,4 -4,4"/>
<!-- 0 -->
<g id="node1" class="node">
<title>0</title>
<polygon fill="none" stroke="#0000ff" points="357,-411 354,-415 333,-415 330,-411 1,-411 1,-358 357,-358 357,-411"/>
<text text-anchor="middle" x="179" y="-395.8" font-family="Times,serif" font-size="14.00" fill="#000000">TableDescription(</text>
<text text-anchor="middle" x="179" y="-380.8" font-family="Times,serif" font-size="14.00" fill="#000000"> &#160;&#160;&#160;table_name=&quot;data_frame&quot;, column_names=[&quot;g&quot;, &quot;x&quot;, &quot;v&quot;]</text>
<text text-anchor="middle" x="179" y="-365.8" font-family="Times,serif" font-size="14.00" fill="#000000">)</text>
</g>
<!-- 1 -->
<g id="node2" class="node">
<title>1</title>
<polygon fill="none" stroke="#006400" points="352,-322 0,-322 0,-239 358,-239 358,-316 352,-322"/>
<polyline fill="none" stroke="#006400" points="352,-322 352,-316 "/>
<polyline fill="none" stroke="#006400" points="358,-316 352,-316 "/>
<text text-anchor="middle" x="179" y="-306.8" font-family="Times,serif" font-size="14.00" fill="#000000">extend(</text>
<text text-anchor="middle" x="179" y="-291.8" font-family="Times,serif" font-size="14.00" fill="#000000"> &#160;&#160;&#160;{&quot;row_number&quot;: &quot;_row_number()&quot;, &quot;shift_v&quot;: &quot;v.shift()&quot;},</text>
<text text-anchor="middle" x="179" y="-276.8" font-family="Times,serif" font-size="14.00" fill="#000000"> &#160;&#160;&#160;partition_by=[&quot;g&quot;],</text>
<text text-anchor="middle" x="179" y="-261.8" font-family="Times,serif" font-size="14.00" fill="#000000"> &#160;&#160;&#160;order_by=[&quot;x&quot;],</text>
<text text-anchor="middle" x="179" y="-246.8" font-family="Times,serif" font-size="14.00" fill="#000000">)</text>
</g>
<!-- 0&#45;&gt;1 -->
<g id="edge1" class="edge">
<title>0&#45;&gt;1</title>
<path fill="none" stroke="#000000" d="M179,-357.9873C179,-350.2014 179,-341.4027 179,-332.6002"/>
<polygon fill="#000000" stroke="#000000" points="182.5001,-332.3255 179,-322.3255 175.5001,-332.3255 182.5001,-332.3255"/>
</g>
<!-- 2 -->
<g id="node3" class="node">
<title>2</title>
<polygon fill="none" stroke="#006400" points="260,-203 92,-203 92,0 266,0 266,-197 260,-203"/>
<polyline fill="none" stroke="#006400" points="260,-203 260,-197 "/>
<polyline fill="none" stroke="#006400" points="266,-197 260,-197 "/>
<text text-anchor="middle" x="179" y="-187.8" font-family="Times,serif" font-size="14.00" fill="#000000">extend(</text>
<text text-anchor="middle" x="179" y="-172.8" font-family="Times,serif" font-size="14.00" fill="#000000"> &#160;&#160;&#160;{</text>
<text text-anchor="middle" x="179" y="-157.8" font-family="Times,serif" font-size="14.00" fill="#000000"> &#160;&#160;&#160;&#160;&#160;&#160;&#160;&quot;ngroup&quot;: &quot;_ngroup()&quot;,</text>
<text text-anchor="middle" x="179" y="-142.8" font-family="Times,serif" font-size="14.00" fill="#000000"> &#160;&#160;&#160;&#160;&#160;&#160;&#160;&quot;size&quot;: &quot;_size()&quot;,</text>
<text text-anchor="middle" x="179" y="-127.8" font-family="Times,serif" font-size="14.00" fill="#000000"> &#160;&#160;&#160;&#160;&#160;&#160;&#160;&quot;max_v&quot;: &quot;v.max()&quot;,</text>
<text text-anchor="middle" x="179" y="-112.8" font-family="Times,serif" font-size="14.00" fill="#000000"> &#160;&#160;&#160;&#160;&#160;&#160;&#160;&quot;min_v&quot;: &quot;v.min()&quot;,</text>
<text text-anchor="middle" x="179" y="-97.8" font-family="Times,serif" font-size="14.00" fill="#000000"> &#160;&#160;&#160;&#160;&#160;&#160;&#160;&quot;sum_v&quot;: &quot;v.sum()&quot;,</text>
<text text-anchor="middle" x="179" y="-82.8" font-family="Times,serif" font-size="14.00" fill="#000000"> &#160;&#160;&#160;&#160;&#160;&#160;&#160;&quot;mean_v&quot;: &quot;v.mean()&quot;,</text>
<text text-anchor="middle" x="179" y="-67.8" font-family="Times,serif" font-size="14.00" fill="#000000"> &#160;&#160;&#160;&#160;&#160;&#160;&#160;&quot;count_v&quot;: &quot;v.count()&quot;,</text>
<text text-anchor="middle" x="179" y="-52.8" font-family="Times,serif" font-size="14.00" fill="#000000"> &#160;&#160;&#160;&#160;&#160;&#160;&#160;&quot;size_v&quot;: &quot;v.size()&quot;,</text>
<text text-anchor="middle" x="179" y="-37.8" font-family="Times,serif" font-size="14.00" fill="#000000"> &#160;&#160;&#160;},</text>
<text text-anchor="middle" x="179" y="-22.8" font-family="Times,serif" font-size="14.00" fill="#000000"> &#160;&#160;&#160;partition_by=[&quot;g&quot;],</text>
<text text-anchor="middle" x="179" y="-7.8" font-family="Times,serif" font-size="14.00" fill="#000000">)</text>
</g>
<!-- 1&#45;&gt;2 -->
<g id="edge2" class="edge">
<title>1&#45;&gt;2</title>
<path fill="none" stroke="#000000" d="M179,-238.9839C179,-231.0299 179,-222.3579 179,-213.3641"/>
<polygon fill="#000000" stroke="#000000" points="182.5001,-213.0941 179,-203.0941 175.5001,-213.0941 182.5001,-213.0941"/>
</g>
</g>
</svg>
