<?xml version="1.0" encoding="UTF-8" standalone="no"?>
<!DOCTYPE svg PUBLIC "-//W3C//DTD SVG 1.1//EN"
 "http://www.w3.org/Graphics/SVG/1.1/DTD/svg11.dtd">
<!-- Generated by graphviz version 2.40.1 (20161225.0304)
 -->
<!-- Title: %3 Pages: 1 -->
<svg width="494pt" height="653pt"
 viewBox="0.00 0.00 494.00 653.00" xmlns="http://www.w3.org/2000/svg" xmlns:xlink="http://www.w3.org/1999/xlink">
<g id="graph0" class="graph" transform="scale(1 1) rotate(0) translate(4 649)">
<title>%3</title>
<polygon fill="#ffffff" stroke="transparent" points="-4,4 -4,-649 490,-649 490,4 -4,4"/>
<!-- 0 -->
<g id="node1" class="node">
<title>0</title>
<polygon fill="none" stroke="#0000ff" points="486,-645 483,-649 462,-649 459,-645 130,-645 130,-592 486,-592 486,-645"/>
<text text-anchor="middle" x="308" y="-629.8" font-family="Times,serif" font-size="14.00" fill="#000000">TableDescription(</text>
<text text-anchor="middle" x="308" y="-614.8" font-family="Times,serif" font-size="14.00" fill="#000000"> &#160;&#160;&#160;table_name=&quot;data_frame&quot;, column_names=[&quot;g&quot;, &quot;x&quot;, &quot;v&quot;]</text>
<text text-anchor="middle" x="308" y="-599.8" font-family="Times,serif" font-size="14.00" fill="#000000">)</text>
</g>
<!-- 1 -->
<g id="node2" class="node">
<title>1</title>
<polygon fill="none" stroke="#006400" points="303,-555 135,-555 135,-519 309,-519 309,-549 303,-555"/>
<polyline fill="none" stroke="#006400" points="303,-555 303,-549 "/>
<polyline fill="none" stroke="#006400" points="309,-549 303,-549 "/>
<text text-anchor="middle" x="222" y="-533.3" font-family="Times,serif" font-size="14.00" fill="#000000">project({}, group_by=[&quot;g&quot;])</text>
</g>
<!-- 0&#45;&gt;1 -->
<g id="edge1" class="edge">
<title>0&#45;&gt;1</title>
<path fill="none" stroke="#000000" d="M279.8404,-591.8139C269.769,-582.2695 258.4596,-571.5519 248.5304,-562.1422"/>
<polygon fill="#000000" stroke="#000000" points="250.9159,-559.5808 241.2499,-555.2426 246.1008,-564.6617 250.9159,-559.5808"/>
</g>
<!-- 3 -->
<g id="node4" class="node">
<title>3</title>
<polygon fill="none" stroke="#006400" points="405,-381 109,-381 109,-345 411,-345 411,-375 405,-381"/>
<polyline fill="none" stroke="#006400" points="405,-381 405,-375 "/>
<polyline fill="none" stroke="#006400" points="411,-375 405,-375 "/>
<text text-anchor="middle" x="260" y="-359.3" font-family="Times,serif" font-size="14.00" fill="#000000">_0.natural_join(b=_1, by=[&quot;g&quot;], jointype=&quot;LEFT&quot;)</text>
</g>
<!-- 0&#45;&gt;3 -->
<g id="edge3" class="edge">
<title>0&#45;&gt;3</title>
<path fill="none" stroke="#000000" d="M321.0608,-591.9414C337.4748,-554.6177 360.7868,-485.2554 337,-432 328.9704,-414.0228 313.6856,-398.7835 298.8371,-387.2364"/>
<polygon fill="#000000" stroke="#000000" points="300.8034,-384.3375 290.6816,-381.2072 296.6421,-389.9663 300.8034,-384.3375"/>
<text text-anchor="middle" x="354.5" y="-489.8" font-family="Times,serif" font-size="14.00" fill="#000000">_0</text>
</g>
<!-- 2 -->
<g id="node3" class="node">
<title>2</title>
<polygon fill="none" stroke="#006400" points="322,-468 0,-468 0,-432 328,-432 328,-462 322,-468"/>
<polyline fill="none" stroke="#006400" points="322,-468 322,-462 "/>
<polyline fill="none" stroke="#006400" points="328,-462 322,-462 "/>
<text text-anchor="middle" x="164" y="-446.3" font-family="Times,serif" font-size="14.00" fill="#000000">extend({&quot;ngroup&quot;: &quot;_row_number()&quot;}, order_by=[&quot;g&quot;])</text>
</g>
<!-- 1&#45;&gt;2 -->
<g id="edge2" class="edge">
<title>1&#45;&gt;2</title>
<path fill="none" stroke="#000000" d="M209.9824,-518.9735C201.8168,-506.7252 190.8777,-490.3165 181.7177,-476.5766"/>
<polygon fill="#000000" stroke="#000000" points="184.4615,-474.3824 176.0022,-468.0034 178.6371,-478.2653 184.4615,-474.3824"/>
</g>
<!-- 2&#45;&gt;3 -->
<g id="edge4" class="edge">
<title>2&#45;&gt;3</title>
<path fill="none" stroke="#000000" d="M183.8913,-431.9735C197.9216,-419.2586 216.899,-402.0603 232.3936,-388.0183"/>
<polygon fill="#000000" stroke="#000000" points="235.0747,-390.3121 240.1342,-381.0034 230.374,-385.1251 235.0747,-390.3121"/>
<text text-anchor="middle" x="225.5" y="-402.8" font-family="Times,serif" font-size="14.00" fill="#000000">_1</text>
</g>
<!-- 4 -->
<g id="node5" class="node">
<title>4</title>
<polygon fill="none" stroke="#006400" points="433,-308 81,-308 81,-225 439,-225 439,-302 433,-308"/>
<polyline fill="none" stroke="#006400" points="433,-308 433,-302 "/>
<polyline fill="none" stroke="#006400" points="439,-302 433,-302 "/>
<text text-anchor="middle" x="260" y="-292.8" font-family="Times,serif" font-size="14.00" fill="#000000">extend(</text>
<text text-anchor="middle" x="260" y="-277.8" font-family="Times,serif" font-size="14.00" fill="#000000"> &#160;&#160;&#160;{&quot;row_number&quot;: &quot;_row_number()&quot;, &quot;shift_v&quot;: &quot;v.shift()&quot;},</text>
<text text-anchor="middle" x="260" y="-262.8" font-family="Times,serif" font-size="14.00" fill="#000000"> &#160;&#160;&#160;partition_by=[&quot;g&quot;],</text>
<text text-anchor="middle" x="260" y="-247.8" font-family="Times,serif" font-size="14.00" fill="#000000"> &#160;&#160;&#160;order_by=[&quot;x&quot;],</text>
<text text-anchor="middle" x="260" y="-232.8" font-family="Times,serif" font-size="14.00" fill="#000000">)</text>
</g>
<!-- 3&#45;&gt;4 -->
<g id="edge5" class="edge">
<title>3&#45;&gt;4</title>
<path fill="none" stroke="#000000" d="M260,-344.8491C260,-337.2311 260,-327.9464 260,-318.4692"/>
<polygon fill="#000000" stroke="#000000" points="263.5001,-318.1796 260,-308.1796 256.5001,-318.1797 263.5001,-318.1796"/>
</g>
<!-- 5 -->
<g id="node6" class="node">
<title>5</title>
<polygon fill="none" stroke="#006400" points="341,-188 173,-188 173,0 347,0 347,-182 341,-188"/>
<polyline fill="none" stroke="#006400" points="341,-188 341,-182 "/>
<polyline fill="none" stroke="#006400" points="347,-182 341,-182 "/>
<text text-anchor="middle" x="260" y="-172.8" font-family="Times,serif" font-size="14.00" fill="#000000">extend(</text>
<text text-anchor="middle" x="260" y="-157.8" font-family="Times,serif" font-size="14.00" fill="#000000"> &#160;&#160;&#160;{</text>
<text text-anchor="middle" x="260" y="-142.8" font-family="Times,serif" font-size="14.00" fill="#000000"> &#160;&#160;&#160;&#160;&#160;&#160;&#160;&quot;size&quot;: &quot;_size()&quot;,</text>
<text text-anchor="middle" x="260" y="-127.8" font-family="Times,serif" font-size="14.00" fill="#000000"> &#160;&#160;&#160;&#160;&#160;&#160;&#160;&quot;max_v&quot;: &quot;v.max()&quot;,</text>
<text text-anchor="middle" x="260" y="-112.8" font-family="Times,serif" font-size="14.00" fill="#000000"> &#160;&#160;&#160;&#160;&#160;&#160;&#160;&quot;min_v&quot;: &quot;v.min()&quot;,</text>
<text text-anchor="middle" x="260" y="-97.8" font-family="Times,serif" font-size="14.00" fill="#000000"> &#160;&#160;&#160;&#160;&#160;&#160;&#160;&quot;sum_v&quot;: &quot;v.sum()&quot;,</text>
<text text-anchor="middle" x="260" y="-82.8" font-family="Times,serif" font-size="14.00" fill="#000000"> &#160;&#160;&#160;&#160;&#160;&#160;&#160;&quot;mean_v&quot;: &quot;v.mean()&quot;,</text>
<text text-anchor="middle" x="260" y="-67.8" font-family="Times,serif" font-size="14.00" fill="#000000"> &#160;&#160;&#160;&#160;&#160;&#160;&#160;&quot;count_v&quot;: &quot;v.count()&quot;,</text>
<text text-anchor="middle" x="260" y="-52.8" font-family="Times,serif" font-size="14.00" fill="#000000"> &#160;&#160;&#160;&#160;&#160;&#160;&#160;&quot;size_v&quot;: &quot;v.size()&quot;,</text>
<text text-anchor="middle" x="260" y="-37.8" font-family="Times,serif" font-size="14.00" fill="#000000"> &#160;&#160;&#160;},</text>
<text text-anchor="middle" x="260" y="-22.8" font-family="Times,serif" font-size="14.00" fill="#000000"> &#160;&#160;&#160;partition_by=[&quot;g&quot;],</text>
<text text-anchor="middle" x="260" y="-7.8" font-family="Times,serif" font-size="14.00" fill="#000000">)</text>
</g>
<!-- 4&#45;&gt;5 -->
<g id="edge6" class="edge">
<title>4&#45;&gt;5</title>
<path fill="none" stroke="#000000" d="M260,-224.7426C260,-216.5414 260,-207.6011 260,-198.3708"/>
<polygon fill="#000000" stroke="#000000" points="263.5001,-198.2624 260,-188.2625 256.5001,-198.2625 263.5001,-198.2624"/>
</g>
</g>
</svg>
