<?xml version="1.0" encoding="UTF-8" standalone="no"?>
<!DOCTYPE svg PUBLIC "-//W3C//DTD SVG 1.1//EN"
 "http://www.w3.org/Graphics/SVG/1.1/DTD/svg11.dtd">
<!-- Generated by graphviz version 2.40.1 (20161225.0304)
 -->
<!-- Title: %3 Pages: 1 -->
<svg width="494pt" height="623pt"
 viewBox="0.00 0.00 494.00 623.00" xmlns="http://www.w3.org/2000/svg" xmlns:xlink="http://www.w3.org/1999/xlink">
<g id="graph0" class="graph" transform="scale(1 1) rotate(0) translate(4 619)">
<title>%3</title>
<polygon fill="#ffffff" stroke="transparent" points="-4,4 -4,-619 490,-619 490,4 -4,4"/>
<!-- 0 -->
<g id="node1" class="node">
<title>0</title>
<polygon fill="none" stroke="#0000ff" points="486,-615 483,-619 462,-619 459,-615 130,-615 130,-562 486,-562 486,-615"/>
<text text-anchor="middle" x="308" y="-599.8" font-family="Times,serif" font-size="14.00" fill="#000000">TableDescription(</text>
<text text-anchor="middle" x="308" y="-584.8" font-family="Times,serif" font-size="14.00" fill="#000000"> &#160;&#160;&#160;table_name=&quot;data_frame&quot;, column_names=[&quot;g&quot;, &quot;x&quot;, &quot;v&quot;]</text>
<text text-anchor="middle" x="308" y="-569.8" font-family="Times,serif" font-size="14.00" fill="#000000">)</text>
</g>
<!-- 1 -->
<g id="node2" class="node">
<title>1</title>
<polygon fill="none" stroke="#006400" points="303,-525 135,-525 135,-489 309,-489 309,-519 303,-525"/>
<polyline fill="none" stroke="#006400" points="303,-525 303,-519 "/>
<polyline fill="none" stroke="#006400" points="309,-519 303,-519 "/>
<text text-anchor="middle" x="222" y="-503.3" font-family="Times,serif" font-size="14.00" fill="#000000">project({}, group_by=[&quot;g&quot;])</text>
</g>
<!-- 0&#45;&gt;1 -->
<g id="edge1" class="edge">
<title>0&#45;&gt;1</title>
<path fill="none" stroke="#000000" d="M279.8404,-561.8139C269.769,-552.2695 258.4596,-541.5519 248.5304,-532.1422"/>
<polygon fill="#000000" stroke="#000000" points="250.9159,-529.5808 241.2499,-525.2426 246.1008,-534.6617 250.9159,-529.5808"/>
</g>
<!-- 3 -->
<g id="node4" class="node">
<title>3</title>
<polygon fill="none" stroke="#006400" points="405,-351 109,-351 109,-315 411,-315 411,-345 405,-351"/>
<polyline fill="none" stroke="#006400" points="405,-351 405,-345 "/>
<polyline fill="none" stroke="#006400" points="411,-345 405,-345 "/>
<text text-anchor="middle" x="260" y="-329.3" font-family="Times,serif" font-size="14.00" fill="#000000">_0.natural_join(b=_1, by=[&quot;g&quot;], jointype=&quot;LEFT&quot;)</text>
</g>
<!-- 0&#45;&gt;3 -->
<g id="edge3" class="edge">
<title>0&#45;&gt;3</title>
<path fill="none" stroke="#000000" d="M321.0608,-561.9414C337.4748,-524.6177 360.7868,-455.2554 337,-402 328.9704,-384.0228 313.6856,-368.7835 298.8371,-357.2364"/>
<polygon fill="#000000" stroke="#000000" points="300.8034,-354.3375 290.6816,-351.2072 296.6421,-359.9663 300.8034,-354.3375"/>
<text text-anchor="middle" x="354.5" y="-459.8" font-family="Times,serif" font-size="14.00" fill="#000000">_0</text>
</g>
<!-- 2 -->
<g id="node3" class="node">
<title>2</title>
<polygon fill="none" stroke="#006400" points="322,-438 0,-438 0,-402 328,-402 328,-432 322,-438"/>
<polyline fill="none" stroke="#006400" points="322,-438 322,-432 "/>
<polyline fill="none" stroke="#006400" points="328,-432 322,-432 "/>
<text text-anchor="middle" x="164" y="-416.3" font-family="Times,serif" font-size="14.00" fill="#000000">extend({&quot;ngroup&quot;: &quot;_row_number()&quot;}, order_by=[&quot;g&quot;])</text>
</g>
<!-- 1&#45;&gt;2 -->
<g id="edge2" class="edge">
<title>1&#45;&gt;2</title>
<path fill="none" stroke="#000000" d="M209.9824,-488.9735C201.8168,-476.7252 190.8777,-460.3165 181.7177,-446.5766"/>
<polygon fill="#000000" stroke="#000000" points="184.4615,-444.3824 176.0022,-438.0034 178.6371,-448.2653 184.4615,-444.3824"/>
</g>
<!-- 2&#45;&gt;3 -->
<g id="edge4" class="edge">
<title>2&#45;&gt;3</title>
<path fill="none" stroke="#000000" d="M183.8913,-401.9735C197.9216,-389.2586 216.899,-372.0603 232.3936,-358.0183"/>
<polygon fill="#000000" stroke="#000000" points="235.0747,-360.3121 240.1342,-351.0034 230.374,-355.1251 235.0747,-360.3121"/>
<text text-anchor="middle" x="225.5" y="-372.8" font-family="Times,serif" font-size="14.00" fill="#000000">_1</text>
</g>
<!-- 4 -->
<g id="node5" class="node">
<title>4</title>
<polygon fill="none" stroke="#006400" points="433,-278 81,-278 81,-195 439,-195 439,-272 433,-278"/>
<polyline fill="none" stroke="#006400" points="433,-278 433,-272 "/>
<polyline fill="none" stroke="#006400" points="439,-272 433,-272 "/>
<text text-anchor="middle" x="260" y="-262.8" font-family="Times,serif" font-size="14.00" fill="#000000">extend(</text>
<text text-anchor="middle" x="260" y="-247.8" font-family="Times,serif" font-size="14.00" fill="#000000"> &#160;&#160;&#160;{&quot;row_number&quot;: &quot;_row_number()&quot;, &quot;shift_v&quot;: &quot;v.shift()&quot;},</text>
<text text-anchor="middle" x="260" y="-232.8" font-family="Times,serif" font-size="14.00" fill="#000000"> &#160;&#160;&#160;partition_by=[&quot;g&quot;],</text>
<text text-anchor="middle" x="260" y="-217.8" font-family="Times,serif" font-size="14.00" fill="#000000"> &#160;&#160;&#160;order_by=[&quot;x&quot;],</text>
<text text-anchor="middle" x="260" y="-202.8" font-family="Times,serif" font-size="14.00" fill="#000000">)</text>
</g>
<!-- 3&#45;&gt;4 -->
<g id="edge5" class="edge">
<title>3&#45;&gt;4</title>
<path fill="none" stroke="#000000" d="M260,-314.8491C260,-307.2311 260,-297.9464 260,-288.4692"/>
<polygon fill="#000000" stroke="#000000" points="263.5001,-288.1796 260,-278.1796 256.5001,-288.1797 263.5001,-288.1796"/>
</g>
<!-- 5 -->
<g id="node6" class="node">
<title>5</title>
<polygon fill="none" stroke="#006400" points="340.5,-158 173.5,-158 173.5,0 346.5,0 346.5,-152 340.5,-158"/>
<polyline fill="none" stroke="#006400" points="340.5,-158 340.5,-152 "/>
<polyline fill="none" stroke="#006400" points="346.5,-152 340.5,-152 "/>
<text text-anchor="middle" x="260" y="-142.8" font-family="Times,serif" font-size="14.00" fill="#000000">extend(</text>
<text text-anchor="middle" x="260" y="-127.8" font-family="Times,serif" font-size="14.00" fill="#000000"> &#160;&#160;&#160;{</text>
<text text-anchor="middle" x="260" y="-112.8" font-family="Times,serif" font-size="14.00" fill="#000000"> &#160;&#160;&#160;&#160;&#160;&#160;&#160;&quot;size&quot;: &quot;_size()&quot;,</text>
<text text-anchor="middle" x="260" y="-97.8" font-family="Times,serif" font-size="14.00" fill="#000000"> &#160;&#160;&#160;&#160;&#160;&#160;&#160;&quot;max_v&quot;: &quot;v.max()&quot;,</text>
<text text-anchor="middle" x="260" y="-82.8" font-family="Times,serif" font-size="14.00" fill="#000000"> &#160;&#160;&#160;&#160;&#160;&#160;&#160;&quot;min_v&quot;: &quot;v.min()&quot;,</text>
<text text-anchor="middle" x="260" y="-67.8" font-family="Times,serif" font-size="14.00" fill="#000000"> &#160;&#160;&#160;&#160;&#160;&#160;&#160;&quot;sum_v&quot;: &quot;v.sum()&quot;,</text>
<text text-anchor="middle" x="260" y="-52.8" font-family="Times,serif" font-size="14.00" fill="#000000"> &#160;&#160;&#160;&#160;&#160;&#160;&#160;&quot;mean_v&quot;: &quot;v.mean()&quot;,</text>
<text text-anchor="middle" x="260" y="-37.8" font-family="Times,serif" font-size="14.00" fill="#000000"> &#160;&#160;&#160;},</text>
<text text-anchor="middle" x="260" y="-22.8" font-family="Times,serif" font-size="14.00" fill="#000000"> &#160;&#160;&#160;partition_by=[&quot;g&quot;],</text>
<text text-anchor="middle" x="260" y="-7.8" font-family="Times,serif" font-size="14.00" fill="#000000">)</text>
</g>
<!-- 4&#45;&gt;5 -->
<g id="edge6" class="edge">
<title>4&#45;&gt;5</title>
<path fill="none" stroke="#000000" d="M260,-194.7064C260,-186.4076 260,-177.4006 260,-168.2"/>
<polygon fill="#000000" stroke="#000000" points="263.5001,-168.1645 260,-158.1646 256.5001,-168.1646 263.5001,-168.1645"/>
</g>
</g>
</svg>
