<?xml version="1.0" encoding="UTF-8" standalone="no"?>
<!DOCTYPE svg PUBLIC "-//W3C//DTD SVG 1.1//EN"
 "http://www.w3.org/Graphics/SVG/1.1/DTD/svg11.dtd">
<!-- Generated by graphviz version 2.40.1 (20161225.0304)
 -->
<!-- Title: %3 Pages: 1 -->
<svg width="494pt" height="683pt"
 viewBox="0.00 0.00 494.00 683.00" xmlns="http://www.w3.org/2000/svg" xmlns:xlink="http://www.w3.org/1999/xlink">
<g id="graph0" class="graph" transform="scale(1 1) rotate(0) translate(4 679)">
<title>%3</title>
<polygon fill="#ffffff" stroke="transparent" points="-4,4 -4,-679 490,-679 490,4 -4,4"/>
<!-- 0 -->
<g id="node1" class="node">
<title>0</title>
<polygon fill="none" stroke="#0000ff" points="486,-675 483,-679 462,-679 459,-675 130,-675 130,-622 486,-622 486,-675"/>
<text text-anchor="middle" x="308" y="-659.8" font-family="Times,serif" font-size="14.00" fill="#000000">TableDescription(</text>
<text text-anchor="middle" x="308" y="-644.8" font-family="Times,serif" font-size="14.00" fill="#000000"> &#160;&#160;&#160;table_name=&quot;data_frame&quot;, column_names=[&quot;g&quot;, &quot;x&quot;, &quot;v&quot;]</text>
<text text-anchor="middle" x="308" y="-629.8" font-family="Times,serif" font-size="14.00" fill="#000000">)</text>
</g>
<!-- 1 -->
<g id="node2" class="node">
<title>1</title>
<polygon fill="none" stroke="#006400" points="303,-585 135,-585 135,-549 309,-549 309,-579 303,-585"/>
<polyline fill="none" stroke="#006400" points="303,-585 303,-579 "/>
<polyline fill="none" stroke="#006400" points="309,-579 303,-579 "/>
<text text-anchor="middle" x="222" y="-563.3" font-family="Times,serif" font-size="14.00" fill="#000000">project({}, group_by=[&quot;g&quot;])</text>
</g>
<!-- 0&#45;&gt;1 -->
<g id="edge1" class="edge">
<title>0&#45;&gt;1</title>
<path fill="none" stroke="#000000" d="M279.8404,-621.8139C269.769,-612.2695 258.4596,-601.5519 248.5304,-592.1422"/>
<polygon fill="#000000" stroke="#000000" points="250.9159,-589.5808 241.2499,-585.2426 246.1008,-594.6617 250.9159,-589.5808"/>
</g>
<!-- 3 -->
<g id="node4" class="node">
<title>3</title>
<polygon fill="none" stroke="#006400" points="405,-411 109,-411 109,-375 411,-375 411,-405 405,-411"/>
<polyline fill="none" stroke="#006400" points="405,-411 405,-405 "/>
<polyline fill="none" stroke="#006400" points="411,-405 405,-405 "/>
<text text-anchor="middle" x="260" y="-389.3" font-family="Times,serif" font-size="14.00" fill="#000000">_0.natural_join(b=_1, by=[&quot;g&quot;], jointype=&quot;LEFT&quot;)</text>
</g>
<!-- 0&#45;&gt;3 -->
<g id="edge3" class="edge">
<title>0&#45;&gt;3</title>
<path fill="none" stroke="#000000" d="M321.0608,-621.9414C337.4748,-584.6177 360.7868,-515.2554 337,-462 328.9704,-444.0228 313.6856,-428.7835 298.8371,-417.2364"/>
<polygon fill="#000000" stroke="#000000" points="300.8034,-414.3375 290.6816,-411.2072 296.6421,-419.9663 300.8034,-414.3375"/>
<text text-anchor="middle" x="354.5" y="-519.8" font-family="Times,serif" font-size="14.00" fill="#000000">_0</text>
</g>
<!-- 2 -->
<g id="node3" class="node">
<title>2</title>
<polygon fill="none" stroke="#006400" points="322,-498 0,-498 0,-462 328,-462 328,-492 322,-498"/>
<polyline fill="none" stroke="#006400" points="322,-498 322,-492 "/>
<polyline fill="none" stroke="#006400" points="328,-492 322,-492 "/>
<text text-anchor="middle" x="164" y="-476.3" font-family="Times,serif" font-size="14.00" fill="#000000">extend({&quot;ngroup&quot;: &quot;_row_number()&quot;}, order_by=[&quot;g&quot;])</text>
</g>
<!-- 1&#45;&gt;2 -->
<g id="edge2" class="edge">
<title>1&#45;&gt;2</title>
<path fill="none" stroke="#000000" d="M209.9824,-548.9735C201.8168,-536.7252 190.8777,-520.3165 181.7177,-506.5766"/>
<polygon fill="#000000" stroke="#000000" points="184.4615,-504.3824 176.0022,-498.0034 178.6371,-508.2653 184.4615,-504.3824"/>
</g>
<!-- 2&#45;&gt;3 -->
<g id="edge4" class="edge">
<title>2&#45;&gt;3</title>
<path fill="none" stroke="#000000" d="M183.8913,-461.9735C197.9216,-449.2586 216.899,-432.0603 232.3936,-418.0183"/>
<polygon fill="#000000" stroke="#000000" points="235.0747,-420.3121 240.1342,-411.0034 230.374,-415.1251 235.0747,-420.3121"/>
<text text-anchor="middle" x="225.5" y="-432.8" font-family="Times,serif" font-size="14.00" fill="#000000">_1</text>
</g>
<!-- 4 -->
<g id="node5" class="node">
<title>4</title>
<polygon fill="none" stroke="#006400" points="373,-338 141,-338 141,-195 379,-195 379,-332 373,-338"/>
<polyline fill="none" stroke="#006400" points="373,-338 373,-332 "/>
<polyline fill="none" stroke="#006400" points="379,-332 373,-332 "/>
<text text-anchor="middle" x="260" y="-322.8" font-family="Times,serif" font-size="14.00" fill="#000000">extend(</text>
<text text-anchor="middle" x="260" y="-307.8" font-family="Times,serif" font-size="14.00" fill="#000000"> &#160;&#160;&#160;{</text>
<text text-anchor="middle" x="260" y="-292.8" font-family="Times,serif" font-size="14.00" fill="#000000"> &#160;&#160;&#160;&#160;&#160;&#160;&#160;&quot;row_number&quot;: &quot;_row_number()&quot;,</text>
<text text-anchor="middle" x="260" y="-277.8" font-family="Times,serif" font-size="14.00" fill="#000000"> &#160;&#160;&#160;&#160;&#160;&#160;&#160;&quot;shift_v&quot;: &quot;v.shift()&quot;,</text>
<text text-anchor="middle" x="260" y="-262.8" font-family="Times,serif" font-size="14.00" fill="#000000"> &#160;&#160;&#160;&#160;&#160;&#160;&#160;&quot;cumsum_v&quot;: &quot;v.cumsum()&quot;,</text>
<text text-anchor="middle" x="260" y="-247.8" font-family="Times,serif" font-size="14.00" fill="#000000"> &#160;&#160;&#160;},</text>
<text text-anchor="middle" x="260" y="-232.8" font-family="Times,serif" font-size="14.00" fill="#000000"> &#160;&#160;&#160;partition_by=[&quot;g&quot;],</text>
<text text-anchor="middle" x="260" y="-217.8" font-family="Times,serif" font-size="14.00" fill="#000000"> &#160;&#160;&#160;order_by=[&quot;x&quot;],</text>
<text text-anchor="middle" x="260" y="-202.8" font-family="Times,serif" font-size="14.00" fill="#000000">)</text>
</g>
<!-- 3&#45;&gt;4 -->
<g id="edge5" class="edge">
<title>3&#45;&gt;4</title>
<path fill="none" stroke="#000000" d="M260,-374.8756C260,-367.3949 260,-358.1569 260,-348.2555"/>
<polygon fill="#000000" stroke="#000000" points="263.5001,-348.1734 260,-338.1734 256.5001,-348.1735 263.5001,-348.1734"/>
</g>
<!-- 5 -->
<g id="node6" class="node">
<title>5</title>
<polygon fill="none" stroke="#006400" points="340.5,-158 173.5,-158 173.5,0 346.5,0 346.5,-152 340.5,-158"/>
<polyline fill="none" stroke="#006400" points="340.5,-158 340.5,-152 "/>
<polyline fill="none" stroke="#006400" points="346.5,-152 340.5,-152 "/>
<text text-anchor="middle" x="260" y="-142.8" font-family="Times,serif" font-size="14.00" fill="#000000">extend(</text>
<text text-anchor="middle" x="260" y="-127.8" font-family="Times,serif" font-size="14.00" fill="#000000"> &#160;&#160;&#160;{</text>
<text text-anchor="middle" x="260" y="-112.8" font-family="Times,serif" font-size="14.00" fill="#000000"> &#160;&#160;&#160;&#160;&#160;&#160;&#160;&quot;size&quot;: &quot;_size()&quot;,</text>
<text text-anchor="middle" x="260" y="-97.8" font-family="Times,serif" font-size="14.00" fill="#000000"> &#160;&#160;&#160;&#160;&#160;&#160;&#160;&quot;max_v&quot;: &quot;v.max()&quot;,</text>
<text text-anchor="middle" x="260" y="-82.8" font-family="Times,serif" font-size="14.00" fill="#000000"> &#160;&#160;&#160;&#160;&#160;&#160;&#160;&quot;min_v&quot;: &quot;v.min()&quot;,</text>
<text text-anchor="middle" x="260" y="-67.8" font-family="Times,serif" font-size="14.00" fill="#000000"> &#160;&#160;&#160;&#160;&#160;&#160;&#160;&quot;sum_v&quot;: &quot;v.sum()&quot;,</text>
<text text-anchor="middle" x="260" y="-52.8" font-family="Times,serif" font-size="14.00" fill="#000000"> &#160;&#160;&#160;&#160;&#160;&#160;&#160;&quot;mean_v&quot;: &quot;v.mean()&quot;,</text>
<text text-anchor="middle" x="260" y="-37.8" font-family="Times,serif" font-size="14.00" fill="#000000"> &#160;&#160;&#160;},</text>
<text text-anchor="middle" x="260" y="-22.8" font-family="Times,serif" font-size="14.00" fill="#000000"> &#160;&#160;&#160;partition_by=[&quot;g&quot;],</text>
<text text-anchor="middle" x="260" y="-7.8" font-family="Times,serif" font-size="14.00" fill="#000000">)</text>
</g>
<!-- 4&#45;&gt;5 -->
<g id="edge6" class="edge">
<title>4&#45;&gt;5</title>
<path fill="none" stroke="#000000" d="M260,-194.8117C260,-186.0985 260,-177.1157 260,-168.1882"/>
<polygon fill="#000000" stroke="#000000" points="263.5001,-168.1496 260,-158.1496 256.5001,-168.1496 263.5001,-168.1496"/>
</g>
</g>
</svg>
