<?xml version="1.0" encoding="UTF-8" standalone="no"?>
<!DOCTYPE svg PUBLIC "-//W3C//DTD SVG 1.1//EN"
 "http://www.w3.org/Graphics/SVG/1.1/DTD/svg11.dtd">
<!-- Generated by graphviz version 2.40.1 (20161225.0304)
 -->
<!-- Title: %3 Pages: 1 -->
<svg width="774pt" height="620pt"
 viewBox="0.00 0.00 774.00 620.00" xmlns="http://www.w3.org/2000/svg" xmlns:xlink="http://www.w3.org/1999/xlink">
<g id="graph0" class="graph" transform="scale(1 1) rotate(0) translate(4 616)">
<title>%3</title>
<polygon fill="#ffffff" stroke="transparent" points="-4,4 -4,-616 770,-616 770,4 -4,4"/>
<!-- 0 -->
<g id="node1" class="node">
<title>0</title>
<polygon fill="none" stroke="#0000ff" points="766,-612 763,-616 742,-616 739,-612 0,-612 0,-576 766,-576 766,-612"/>
<text text-anchor="middle" x="383" y="-590.3" font-family="Times,serif" font-size="14.00" fill="#000000">TableDescription(table_name=&#39;d&#39;, column_names=[&#39;subjectID&#39;, &#39;surveyCategory&#39;, &#39;assessmentTotal&#39;, &#39;irrelevantCol1&#39;, &#39;irrelevantCol2&#39;])</text>
</g>
<!-- 1 -->
<g id="node2" class="node">
<title>1</title>
<polygon fill="none" stroke="#006400" points="544.5,-540 215.5,-540 215.5,-504 550.5,-504 550.5,-534 544.5,-540"/>
<polyline fill="none" stroke="#006400" points="544.5,-540 544.5,-534 "/>
<polyline fill="none" stroke="#006400" points="550.5,-534 544.5,-534 "/>
<text text-anchor="middle" x="383" y="-518.3" font-family="Times,serif" font-size="14.00" fill="#000000">extend({&#39;probability&#39;: &#39;(assessmentTotal * 0.237).exp()&#39;})</text>
</g>
<!-- 0&#45;&gt;1 -->
<g id="edge1" class="edge">
<title>0&#45;&gt;1</title>
<path fill="none" stroke="#000000" d="M383,-575.8314C383,-568.131 383,-558.9743 383,-550.4166"/>
<polygon fill="#000000" stroke="#000000" points="386.5001,-550.4132 383,-540.4133 379.5001,-550.4133 386.5001,-550.4132"/>
</g>
<!-- 2 -->
<g id="node3" class="node">
<title>2</title>
<polygon fill="none" stroke="#006400" points="561.5,-468 198.5,-468 198.5,-432 567.5,-432 567.5,-462 561.5,-468"/>
<polyline fill="none" stroke="#006400" points="561.5,-468 561.5,-462 "/>
<polyline fill="none" stroke="#006400" points="567.5,-462 561.5,-462 "/>
<text text-anchor="middle" x="383" y="-446.3" font-family="Times,serif" font-size="14.00" fill="#000000">extend({&#39;total&#39;: &#39;probability.sum()&#39;}, partition_by=[&#39;subjectID&#39;])</text>
</g>
<!-- 1&#45;&gt;2 -->
<g id="edge2" class="edge">
<title>1&#45;&gt;2</title>
<path fill="none" stroke="#000000" d="M383,-503.8314C383,-496.131 383,-486.9743 383,-478.4166"/>
<polygon fill="#000000" stroke="#000000" points="386.5001,-478.4132 383,-468.4133 379.5001,-478.4133 386.5001,-478.4132"/>
</g>
<!-- 3 -->
<g id="node4" class="node">
<title>3</title>
<polygon fill="none" stroke="#006400" points="503.5,-396 256.5,-396 256.5,-360 509.5,-360 509.5,-390 503.5,-396"/>
<polyline fill="none" stroke="#006400" points="503.5,-396 503.5,-390 "/>
<polyline fill="none" stroke="#006400" points="509.5,-390 503.5,-390 "/>
<text text-anchor="middle" x="383" y="-374.3" font-family="Times,serif" font-size="14.00" fill="#000000">extend({&#39;probability&#39;: &#39;probability / total&#39;})</text>
</g>
<!-- 2&#45;&gt;3 -->
<g id="edge3" class="edge">
<title>2&#45;&gt;3</title>
<path fill="none" stroke="#000000" d="M383,-431.8314C383,-424.131 383,-414.9743 383,-406.4166"/>
<polygon fill="#000000" stroke="#000000" points="386.5001,-406.4132 383,-396.4133 379.5001,-406.4133 386.5001,-406.4132"/>
</g>
<!-- 4 -->
<g id="node5" class="node">
<title>4</title>
<polygon fill="none" stroke="#006400" points="481,-324 279,-324 279,-288 487,-288 487,-318 481,-324"/>
<polyline fill="none" stroke="#006400" points="481,-324 481,-318 "/>
<polyline fill="none" stroke="#006400" points="487,-318 481,-318 "/>
<text text-anchor="middle" x="383" y="-302.3" font-family="Times,serif" font-size="14.00" fill="#000000">extend({&#39;sort_key&#39;: &#39;&#45;probability&#39;})</text>
</g>
<!-- 3&#45;&gt;4 -->
<g id="edge4" class="edge">
<title>3&#45;&gt;4</title>
<path fill="none" stroke="#000000" d="M383,-359.8314C383,-352.131 383,-342.9743 383,-334.4166"/>
<polygon fill="#000000" stroke="#000000" points="386.5001,-334.4132 383,-324.4133 379.5001,-334.4133 386.5001,-334.4132"/>
</g>
<!-- 5 -->
<g id="node6" class="node">
<title>5</title>
<polygon fill="none" stroke="#006400" points="644,-252 116,-252 116,-216 650,-216 650,-246 644,-252"/>
<polyline fill="none" stroke="#006400" points="644,-252 644,-246 "/>
<polyline fill="none" stroke="#006400" points="650,-246 644,-246 "/>
<text text-anchor="middle" x="383" y="-230.3" font-family="Times,serif" font-size="14.00" fill="#000000">extend({&#39;row_number&#39;: &#39;_row_number()&#39;}, partition_by=[&#39;subjectID&#39;], order_by=[&#39;sort_key&#39;])</text>
</g>
<!-- 4&#45;&gt;5 -->
<g id="edge5" class="edge">
<title>4&#45;&gt;5</title>
<path fill="none" stroke="#000000" d="M383,-287.8314C383,-280.131 383,-270.9743 383,-262.4166"/>
<polygon fill="#000000" stroke="#000000" points="386.5001,-262.4132 383,-252.4133 379.5001,-262.4133 386.5001,-262.4132"/>
</g>
<!-- 6 -->
<g id="node7" class="node">
<title>6</title>
<polygon fill="none" stroke="#006400" points="476,-180 284,-180 284,-144 482,-144 482,-174 476,-180"/>
<polyline fill="none" stroke="#006400" points="476,-180 476,-174 "/>
<polyline fill="none" stroke="#006400" points="482,-174 476,-174 "/>
<text text-anchor="middle" x="383" y="-158.3" font-family="Times,serif" font-size="14.00" fill="#000000">select_rows(&#39;row_number == 1&#39;)</text>
</g>
<!-- 5&#45;&gt;6 -->
<g id="edge6" class="edge">
<title>5&#45;&gt;6</title>
<path fill="none" stroke="#000000" d="M383,-215.8314C383,-208.131 383,-198.9743 383,-190.4166"/>
<polygon fill="#000000" stroke="#000000" points="386.5001,-190.4132 383,-180.4133 379.5001,-190.4133 386.5001,-190.4132"/>
</g>
<!-- 7 -->
<g id="node8" class="node">
<title>7</title>
<polygon fill="none" stroke="#006400" points="554.5,-108 205.5,-108 205.5,-72 560.5,-72 560.5,-102 554.5,-108"/>
<polyline fill="none" stroke="#006400" points="554.5,-108 554.5,-102 "/>
<polyline fill="none" stroke="#006400" points="560.5,-102 554.5,-102 "/>
<text text-anchor="middle" x="383" y="-86.3" font-family="Times,serif" font-size="14.00" fill="#000000">select_columns([&#39;subjectID&#39;, &#39;surveyCategory&#39;, &#39;probability&#39;])</text>
</g>
<!-- 6&#45;&gt;7 -->
<g id="edge7" class="edge">
<title>6&#45;&gt;7</title>
<path fill="none" stroke="#000000" d="M383,-143.8314C383,-136.131 383,-126.9743 383,-118.4166"/>
<polygon fill="#000000" stroke="#000000" points="386.5001,-118.4132 383,-108.4133 379.5001,-118.4133 386.5001,-118.4132"/>
</g>
<!-- 8 -->
<g id="node9" class="node">
<title>8</title>
<polygon fill="none" stroke="#006400" points="524,-36 236,-36 236,0 530,0 530,-30 524,-36"/>
<polyline fill="none" stroke="#006400" points="524,-36 524,-30 "/>
<polyline fill="none" stroke="#006400" points="530,-30 524,-30 "/>
<text text-anchor="middle" x="383" y="-14.3" font-family="Times,serif" font-size="14.00" fill="#000000">rename_columns({&#39;diagnosis&#39;: &#39;surveyCategory&#39;})</text>
</g>
<!-- 7&#45;&gt;8 -->
<g id="edge8" class="edge">
<title>7&#45;&gt;8</title>
<path fill="none" stroke="#000000" d="M383,-71.8314C383,-64.131 383,-54.9743 383,-46.4166"/>
<polygon fill="#000000" stroke="#000000" points="386.5001,-46.4132 383,-36.4133 379.5001,-46.4133 386.5001,-46.4132"/>
</g>
</g>
</svg>
