<?xml version="1.0" encoding="UTF-8" standalone="no"?>
<!DOCTYPE svg PUBLIC "-//W3C//DTD SVG 1.1//EN"
 "http://www.w3.org/Graphics/SVG/1.1/DTD/svg11.dtd">
<!-- Generated by graphviz version 2.40.1 (20161225.0304)
 -->
<!-- Title: %3 Pages: 1 -->
<svg width="356pt" height="838pt"
 viewBox="0.00 0.00 356.00 838.00" xmlns="http://www.w3.org/2000/svg" xmlns:xlink="http://www.w3.org/1999/xlink">
<g id="graph0" class="graph" transform="scale(1 1) rotate(0) translate(4 834)">
<title>%3</title>
<polygon fill="#ffffff" stroke="transparent" points="-4,4 -4,-834 352,-834 352,4 -4,4"/>
<!-- 0 -->
<g id="node1" class="node">
<title>0</title>
<polygon fill="none" stroke="#0000ff" points="249.5,-830 246.5,-834 225.5,-834 222.5,-830 98.5,-830 98.5,-672 249.5,-672 249.5,-830"/>
<text text-anchor="middle" x="174" y="-814.8" font-family="Times,serif" font-size="14.00" fill="#000000">TableDescription(</text>
<text text-anchor="middle" x="174" y="-799.8" font-family="Times,serif" font-size="14.00" fill="#000000"> &#160;&#160;&#160;table_name=&quot;d&quot;,</text>
<text text-anchor="middle" x="174" y="-784.8" font-family="Times,serif" font-size="14.00" fill="#000000"> &#160;&#160;&#160;column_names=[</text>
<text text-anchor="middle" x="174" y="-769.8" font-family="Times,serif" font-size="14.00" fill="#000000"> &#160;&#160;&#160;&#160;&#160;&#160;&#160;&quot;subjectID&quot;,</text>
<text text-anchor="middle" x="174" y="-754.8" font-family="Times,serif" font-size="14.00" fill="#000000"> &#160;&#160;&#160;&#160;&#160;&#160;&#160;&quot;surveyCategory&quot;,</text>
<text text-anchor="middle" x="174" y="-739.8" font-family="Times,serif" font-size="14.00" fill="#000000"> &#160;&#160;&#160;&#160;&#160;&#160;&#160;&quot;assessmentTotal&quot;,</text>
<text text-anchor="middle" x="174" y="-724.8" font-family="Times,serif" font-size="14.00" fill="#000000"> &#160;&#160;&#160;&#160;&#160;&#160;&#160;&quot;irrelevantCol1&quot;,</text>
<text text-anchor="middle" x="174" y="-709.8" font-family="Times,serif" font-size="14.00" fill="#000000"> &#160;&#160;&#160;&#160;&#160;&#160;&#160;&quot;irrelevantCol2&quot;,</text>
<text text-anchor="middle" x="174" y="-694.8" font-family="Times,serif" font-size="14.00" fill="#000000"> &#160;&#160;&#160;],</text>
<text text-anchor="middle" x="174" y="-679.8" font-family="Times,serif" font-size="14.00" fill="#000000">)</text>
</g>
<!-- 1 -->
<g id="node2" class="node">
<title>1</title>
<polygon fill="none" stroke="#006400" points="342,-636 0,-636 0,-600 348,-600 348,-630 342,-636"/>
<polyline fill="none" stroke="#006400" points="342,-636 342,-630 "/>
<polyline fill="none" stroke="#006400" points="348,-630 342,-630 "/>
<text text-anchor="middle" x="174" y="-614.3" font-family="Times,serif" font-size="14.00" fill="#000000">extend({&quot;probability&quot;: &quot;(assessmentTotal * 0.237).exp()&quot;})</text>
</g>
<!-- 0&#45;&gt;1 -->
<g id="edge1" class="edge">
<title>0&#45;&gt;1</title>
<path fill="none" stroke="#000000" d="M174,-671.7128C174,-662.6382 174,-653.8937 174,-646.1901"/>
<polygon fill="#000000" stroke="#000000" points="177.5001,-646.0667 174,-636.0667 170.5001,-646.0668 177.5001,-646.0667"/>
</g>
<!-- 2 -->
<g id="node3" class="node">
<title>2</title>
<polygon fill="none" stroke="#006400" points="268,-564 74,-564 74,-496 274,-496 274,-558 268,-564"/>
<polyline fill="none" stroke="#006400" points="268,-564 268,-558 "/>
<polyline fill="none" stroke="#006400" points="274,-558 268,-558 "/>
<text text-anchor="middle" x="174" y="-548.8" font-family="Times,serif" font-size="14.00" fill="#000000">extend(</text>
<text text-anchor="middle" x="174" y="-533.8" font-family="Times,serif" font-size="14.00" fill="#000000"> &#160;&#160;&#160;{&quot;total&quot;: &quot;probability.sum()&quot;},</text>
<text text-anchor="middle" x="174" y="-518.8" font-family="Times,serif" font-size="14.00" fill="#000000"> &#160;&#160;&#160;partition_by=[&quot;subjectID&quot;],</text>
<text text-anchor="middle" x="174" y="-503.8" font-family="Times,serif" font-size="14.00" fill="#000000">)</text>
</g>
<!-- 1&#45;&gt;2 -->
<g id="edge2" class="edge">
<title>1&#45;&gt;2</title>
<path fill="none" stroke="#000000" d="M174,-599.7663C174,-592.3045 174,-583.3162 174,-574.3106"/>
<polygon fill="#000000" stroke="#000000" points="177.5001,-574.216 174,-564.216 170.5001,-574.216 177.5001,-574.216"/>
</g>
<!-- 3 -->
<g id="node4" class="node">
<title>3</title>
<polygon fill="none" stroke="#006400" points="300.5,-460 41.5,-460 41.5,-424 306.5,-424 306.5,-454 300.5,-460"/>
<polyline fill="none" stroke="#006400" points="300.5,-460 300.5,-454 "/>
<polyline fill="none" stroke="#006400" points="306.5,-454 300.5,-454 "/>
<text text-anchor="middle" x="174" y="-438.3" font-family="Times,serif" font-size="14.00" fill="#000000">extend({&quot;probability&quot;: &quot;probability / total&quot;})</text>
</g>
<!-- 2&#45;&gt;3 -->
<g id="edge3" class="edge">
<title>2&#45;&gt;3</title>
<path fill="none" stroke="#000000" d="M174,-495.9769C174,-487.5023 174,-478.5065 174,-470.3388"/>
<polygon fill="#000000" stroke="#000000" points="177.5001,-470.1919 174,-460.192 170.5001,-470.192 177.5001,-470.1919"/>
</g>
<!-- 4 -->
<g id="node5" class="node">
<title>4</title>
<polygon fill="none" stroke="#006400" points="278.5,-388 63.5,-388 63.5,-352 284.5,-352 284.5,-382 278.5,-388"/>
<polyline fill="none" stroke="#006400" points="278.5,-388 278.5,-382 "/>
<polyline fill="none" stroke="#006400" points="284.5,-382 278.5,-382 "/>
<text text-anchor="middle" x="174" y="-366.3" font-family="Times,serif" font-size="14.00" fill="#000000">extend({&quot;sort_key&quot;: &quot;&#45;probability&quot;})</text>
</g>
<!-- 3&#45;&gt;4 -->
<g id="edge4" class="edge">
<title>3&#45;&gt;4</title>
<path fill="none" stroke="#000000" d="M174,-423.8314C174,-416.131 174,-406.9743 174,-398.4166"/>
<polygon fill="#000000" stroke="#000000" points="177.5001,-398.4132 174,-388.4133 170.5001,-398.4133 177.5001,-398.4132"/>
</g>
<!-- 5 -->
<g id="node6" class="node">
<title>5</title>
<polygon fill="none" stroke="#006400" points="286.5,-316 55.5,-316 55.5,-233 292.5,-233 292.5,-310 286.5,-316"/>
<polyline fill="none" stroke="#006400" points="286.5,-316 286.5,-310 "/>
<polyline fill="none" stroke="#006400" points="292.5,-310 286.5,-310 "/>
<text text-anchor="middle" x="174" y="-300.8" font-family="Times,serif" font-size="14.00" fill="#000000">extend(</text>
<text text-anchor="middle" x="174" y="-285.8" font-family="Times,serif" font-size="14.00" fill="#000000"> &#160;&#160;&#160;{&quot;row_number&quot;: &quot;_row_number()&quot;},</text>
<text text-anchor="middle" x="174" y="-270.8" font-family="Times,serif" font-size="14.00" fill="#000000"> &#160;&#160;&#160;partition_by=[&quot;subjectID&quot;],</text>
<text text-anchor="middle" x="174" y="-255.8" font-family="Times,serif" font-size="14.00" fill="#000000"> &#160;&#160;&#160;order_by=[&quot;sort_key&quot;],</text>
<text text-anchor="middle" x="174" y="-240.8" font-family="Times,serif" font-size="14.00" fill="#000000">)</text>
</g>
<!-- 4&#45;&gt;5 -->
<g id="edge5" class="edge">
<title>4&#45;&gt;5</title>
<path fill="none" stroke="#000000" d="M174,-351.5866C174,-344.2618 174,-335.4333 174,-326.4051"/>
<polygon fill="#000000" stroke="#000000" points="177.5001,-326.1966 174,-316.1967 170.5001,-326.1967 177.5001,-326.1966"/>
</g>
<!-- 6 -->
<g id="node7" class="node">
<title>6</title>
<polygon fill="none" stroke="#006400" points="270.5,-197 71.5,-197 71.5,-161 276.5,-161 276.5,-191 270.5,-197"/>
<polyline fill="none" stroke="#006400" points="270.5,-197 270.5,-191 "/>
<polyline fill="none" stroke="#006400" points="276.5,-191 270.5,-191 "/>
<text text-anchor="middle" x="174" y="-175.3" font-family="Times,serif" font-size="14.00" fill="#000000">select_rows(&quot;row_number == 1&quot;)</text>
</g>
<!-- 5&#45;&gt;6 -->
<g id="edge6" class="edge">
<title>5&#45;&gt;6</title>
<path fill="none" stroke="#000000" d="M174,-232.8901C174,-224.3201 174,-215.4817 174,-207.5041"/>
<polygon fill="#000000" stroke="#000000" points="177.5001,-207.2651 174,-197.2651 170.5001,-207.2651 177.5001,-207.2651"/>
</g>
<!-- 7 -->
<g id="node8" class="node">
<title>7</title>
<polygon fill="none" stroke="#006400" points="314.5,-125 27.5,-125 27.5,-72 320.5,-72 320.5,-119 314.5,-125"/>
<polyline fill="none" stroke="#006400" points="314.5,-125 314.5,-119 "/>
<polyline fill="none" stroke="#006400" points="320.5,-119 314.5,-119 "/>
<text text-anchor="middle" x="174" y="-109.8" font-family="Times,serif" font-size="14.00" fill="#000000">select_columns(</text>
<text text-anchor="middle" x="174" y="-94.8" font-family="Times,serif" font-size="14.00" fill="#000000"> &#160;&#160;&#160;[&quot;subjectID&quot;, &quot;surveyCategory&quot;, &quot;probability&quot;]</text>
<text text-anchor="middle" x="174" y="-79.8" font-family="Times,serif" font-size="14.00" fill="#000000">)</text>
</g>
<!-- 6&#45;&gt;7 -->
<g id="edge7" class="edge">
<title>6&#45;&gt;7</title>
<path fill="none" stroke="#000000" d="M174,-160.7333C174,-153.1981 174,-144.1801 174,-135.3786"/>
<polygon fill="#000000" stroke="#000000" points="177.5001,-135.2476 174,-125.2477 170.5001,-135.2477 177.5001,-135.2476"/>
</g>
<!-- 8 -->
<g id="node9" class="node">
<title>8</title>
<polygon fill="none" stroke="#006400" points="321.5,-36 20.5,-36 20.5,0 327.5,0 327.5,-30 321.5,-36"/>
<polyline fill="none" stroke="#006400" points="321.5,-36 321.5,-30 "/>
<polyline fill="none" stroke="#006400" points="327.5,-30 321.5,-30 "/>
<text text-anchor="middle" x="174" y="-14.3" font-family="Times,serif" font-size="14.00" fill="#000000">rename_columns({&quot;diagnosis&quot;: &quot;surveyCategory&quot;})</text>
</g>
<!-- 7&#45;&gt;8 -->
<g id="edge8" class="edge">
<title>7&#45;&gt;8</title>
<path fill="none" stroke="#000000" d="M174,-71.6947C174,-63.462 174,-54.3814 174,-46.0667"/>
<polygon fill="#000000" stroke="#000000" points="177.5001,-46.0657 174,-36.0658 170.5001,-46.0658 177.5001,-46.0657"/>
</g>
</g>
</svg>
