<?xml version="1.0" encoding="UTF-8" standalone="no"?>
<!DOCTYPE svg PUBLIC "-//W3C//DTD SVG 1.1//EN"
 "http://www.w3.org/Graphics/SVG/1.1/DTD/svg11.dtd">
<!-- Generated by graphviz version 2.40.1 (20161225.0304)
 -->
<!-- Title: %3 Pages: 1 -->
<svg width="356pt" height="781pt"
 viewBox="0.00 0.00 356.00 781.00" xmlns="http://www.w3.org/2000/svg" xmlns:xlink="http://www.w3.org/1999/xlink">
<g id="graph0" class="graph" transform="scale(1 1) rotate(0) translate(4 777)">
<title>%3</title>
<polygon fill="#ffffff" stroke="transparent" points="-4,4 -4,-777 352,-777 352,4 -4,4"/>
<!-- 0 -->
<g id="node1" class="node">
<title>0</title>
<polygon fill="none" stroke="#0000ff" points="249.5,-773 246.5,-777 225.5,-777 222.5,-773 98.5,-773 98.5,-615 249.5,-615 249.5,-773"/>
<text text-anchor="middle" x="174" y="-757.8" font-family="Times,serif" font-size="14.00" fill="#000000">TableDescription(</text>
<text text-anchor="middle" x="174" y="-742.8" font-family="Times,serif" font-size="14.00" fill="#000000"> &#160;&#160;&#160;table_name=&quot;d&quot;,</text>
<text text-anchor="middle" x="174" y="-727.8" font-family="Times,serif" font-size="14.00" fill="#000000"> &#160;&#160;&#160;column_names=[</text>
<text text-anchor="middle" x="174" y="-712.8" font-family="Times,serif" font-size="14.00" fill="#000000"> &#160;&#160;&#160;&#160;&#160;&#160;&#160;&quot;subjectID&quot;,</text>
<text text-anchor="middle" x="174" y="-697.8" font-family="Times,serif" font-size="14.00" fill="#000000"> &#160;&#160;&#160;&#160;&#160;&#160;&#160;&quot;surveyCategory&quot;,</text>
<text text-anchor="middle" x="174" y="-682.8" font-family="Times,serif" font-size="14.00" fill="#000000"> &#160;&#160;&#160;&#160;&#160;&#160;&#160;&quot;assessmentTotal&quot;,</text>
<text text-anchor="middle" x="174" y="-667.8" font-family="Times,serif" font-size="14.00" fill="#000000"> &#160;&#160;&#160;&#160;&#160;&#160;&#160;&quot;irrelevantCol1&quot;,</text>
<text text-anchor="middle" x="174" y="-652.8" font-family="Times,serif" font-size="14.00" fill="#000000"> &#160;&#160;&#160;&#160;&#160;&#160;&#160;&quot;irrelevantCol2&quot;,</text>
<text text-anchor="middle" x="174" y="-637.8" font-family="Times,serif" font-size="14.00" fill="#000000"> &#160;&#160;&#160;],</text>
<text text-anchor="middle" x="174" y="-622.8" font-family="Times,serif" font-size="14.00" fill="#000000">)</text>
</g>
<!-- 1 -->
<g id="node2" class="node">
<title>1</title>
<polygon fill="none" stroke="#006400" points="342,-579 0,-579 0,-543 348,-543 348,-573 342,-579"/>
<polyline fill="none" stroke="#006400" points="342,-579 342,-573 "/>
<polyline fill="none" stroke="#006400" points="348,-573 342,-573 "/>
<text text-anchor="middle" x="174" y="-557.3" font-family="Times,serif" font-size="14.00" fill="#000000">extend({&quot;probability&quot;: &quot;(assessmentTotal * 0.237).exp()&quot;})</text>
</g>
<!-- 0&#45;&gt;1 -->
<g id="edge1" class="edge">
<title>0&#45;&gt;1</title>
<path fill="none" stroke="#000000" d="M174,-614.7128C174,-605.6382 174,-596.8937 174,-589.1901"/>
<polygon fill="#000000" stroke="#000000" points="177.5001,-589.0667 174,-579.0667 170.5001,-589.0668 177.5001,-589.0667"/>
</g>
<!-- 2 -->
<g id="node3" class="node">
<title>2</title>
<polygon fill="none" stroke="#006400" points="268,-507 74,-507 74,-439 274,-439 274,-501 268,-507"/>
<polyline fill="none" stroke="#006400" points="268,-507 268,-501 "/>
<polyline fill="none" stroke="#006400" points="274,-501 268,-501 "/>
<text text-anchor="middle" x="174" y="-491.8" font-family="Times,serif" font-size="14.00" fill="#000000">extend(</text>
<text text-anchor="middle" x="174" y="-476.8" font-family="Times,serif" font-size="14.00" fill="#000000"> &#160;&#160;&#160;{&quot;total&quot;: &quot;probability.sum()&quot;},</text>
<text text-anchor="middle" x="174" y="-461.8" font-family="Times,serif" font-size="14.00" fill="#000000"> &#160;&#160;&#160;partition_by=[&quot;subjectID&quot;],</text>
<text text-anchor="middle" x="174" y="-446.8" font-family="Times,serif" font-size="14.00" fill="#000000">)</text>
</g>
<!-- 1&#45;&gt;2 -->
<g id="edge2" class="edge">
<title>1&#45;&gt;2</title>
<path fill="none" stroke="#000000" d="M174,-542.7663C174,-535.3045 174,-526.3162 174,-517.3106"/>
<polygon fill="#000000" stroke="#000000" points="177.5001,-517.216 174,-507.216 170.5001,-517.216 177.5001,-517.216"/>
</g>
<!-- 3 -->
<g id="node4" class="node">
<title>3</title>
<polygon fill="none" stroke="#006400" points="300.5,-403 41.5,-403 41.5,-367 306.5,-367 306.5,-397 300.5,-403"/>
<polyline fill="none" stroke="#006400" points="300.5,-403 300.5,-397 "/>
<polyline fill="none" stroke="#006400" points="306.5,-397 300.5,-397 "/>
<text text-anchor="middle" x="174" y="-381.3" font-family="Times,serif" font-size="14.00" fill="#000000">extend({&quot;probability&quot;: &quot;probability / total&quot;})</text>
</g>
<!-- 2&#45;&gt;3 -->
<g id="edge3" class="edge">
<title>2&#45;&gt;3</title>
<path fill="none" stroke="#000000" d="M174,-438.9769C174,-430.5023 174,-421.5065 174,-413.3388"/>
<polygon fill="#000000" stroke="#000000" points="177.5001,-413.1919 174,-403.192 170.5001,-413.192 177.5001,-413.1919"/>
</g>
<!-- 4 -->
<g id="node5" class="node">
<title>4</title>
<polygon fill="none" stroke="#006400" points="286.5,-331 55.5,-331 55.5,-233 292.5,-233 292.5,-325 286.5,-331"/>
<polyline fill="none" stroke="#006400" points="286.5,-331 286.5,-325 "/>
<polyline fill="none" stroke="#006400" points="292.5,-325 286.5,-325 "/>
<text text-anchor="middle" x="174" y="-315.8" font-family="Times,serif" font-size="14.00" fill="#000000">extend(</text>
<text text-anchor="middle" x="174" y="-300.8" font-family="Times,serif" font-size="14.00" fill="#000000"> &#160;&#160;&#160;{&quot;row_number&quot;: &quot;_row_number()&quot;},</text>
<text text-anchor="middle" x="174" y="-285.8" font-family="Times,serif" font-size="14.00" fill="#000000"> &#160;&#160;&#160;partition_by=[&quot;subjectID&quot;],</text>
<text text-anchor="middle" x="174" y="-270.8" font-family="Times,serif" font-size="14.00" fill="#000000"> &#160;&#160;&#160;order_by=[&quot;probability&quot;],</text>
<text text-anchor="middle" x="174" y="-255.8" font-family="Times,serif" font-size="14.00" fill="#000000"> &#160;&#160;&#160;reverse=[&quot;probability&quot;],</text>
<text text-anchor="middle" x="174" y="-240.8" font-family="Times,serif" font-size="14.00" fill="#000000">)</text>
</g>
<!-- 3&#45;&gt;4 -->
<g id="edge4" class="edge">
<title>3&#45;&gt;4</title>
<path fill="none" stroke="#000000" d="M174,-366.5857C174,-359.2767 174,-350.4259 174,-341.2389"/>
<polygon fill="#000000" stroke="#000000" points="177.5001,-341.195 174,-331.1951 170.5001,-341.1951 177.5001,-341.195"/>
</g>
<!-- 5 -->
<g id="node6" class="node">
<title>5</title>
<polygon fill="none" stroke="#006400" points="270.5,-197 71.5,-197 71.5,-161 276.5,-161 276.5,-191 270.5,-197"/>
<polyline fill="none" stroke="#006400" points="270.5,-197 270.5,-191 "/>
<polyline fill="none" stroke="#006400" points="276.5,-191 270.5,-191 "/>
<text text-anchor="middle" x="174" y="-175.3" font-family="Times,serif" font-size="14.00" fill="#000000">select_rows(&quot;row_number == 1&quot;)</text>
</g>
<!-- 4&#45;&gt;5 -->
<g id="edge5" class="edge">
<title>4&#45;&gt;5</title>
<path fill="none" stroke="#000000" d="M174,-232.9133C174,-224.2215 174,-215.4378 174,-207.5555"/>
<polygon fill="#000000" stroke="#000000" points="177.5001,-207.4589 174,-197.4589 170.5001,-207.4589 177.5001,-207.4589"/>
</g>
<!-- 6 -->
<g id="node7" class="node">
<title>6</title>
<polygon fill="none" stroke="#006400" points="314.5,-125 27.5,-125 27.5,-72 320.5,-72 320.5,-119 314.5,-125"/>
<polyline fill="none" stroke="#006400" points="314.5,-125 314.5,-119 "/>
<polyline fill="none" stroke="#006400" points="320.5,-119 314.5,-119 "/>
<text text-anchor="middle" x="174" y="-109.8" font-family="Times,serif" font-size="14.00" fill="#000000">select_columns(</text>
<text text-anchor="middle" x="174" y="-94.8" font-family="Times,serif" font-size="14.00" fill="#000000"> &#160;&#160;&#160;[&quot;subjectID&quot;, &quot;surveyCategory&quot;, &quot;probability&quot;]</text>
<text text-anchor="middle" x="174" y="-79.8" font-family="Times,serif" font-size="14.00" fill="#000000">)</text>
</g>
<!-- 5&#45;&gt;6 -->
<g id="edge6" class="edge">
<title>5&#45;&gt;6</title>
<path fill="none" stroke="#000000" d="M174,-160.7333C174,-153.1981 174,-144.1801 174,-135.3786"/>
<polygon fill="#000000" stroke="#000000" points="177.5001,-135.2476 174,-125.2477 170.5001,-135.2477 177.5001,-135.2476"/>
</g>
<!-- 7 -->
<g id="node8" class="node">
<title>7</title>
<polygon fill="none" stroke="#006400" points="321.5,-36 20.5,-36 20.5,0 327.5,0 327.5,-30 321.5,-36"/>
<polyline fill="none" stroke="#006400" points="321.5,-36 321.5,-30 "/>
<polyline fill="none" stroke="#006400" points="327.5,-30 321.5,-30 "/>
<text text-anchor="middle" x="174" y="-14.3" font-family="Times,serif" font-size="14.00" fill="#000000">rename_columns({&quot;diagnosis&quot;: &quot;surveyCategory&quot;})</text>
</g>
<!-- 6&#45;&gt;7 -->
<g id="edge7" class="edge">
<title>6&#45;&gt;7</title>
<path fill="none" stroke="#000000" d="M174,-71.6947C174,-63.462 174,-54.3814 174,-46.0667"/>
<polygon fill="#000000" stroke="#000000" points="177.5001,-46.0657 174,-36.0658 170.5001,-46.0658 177.5001,-46.0657"/>
</g>
</g>
</svg>
